# xmcd
#
# Track frame offsets:
#	182
#	10245
#	25852
#	34772
#	50067
#	64102
#	80107
#	91320
#	100292
#	107125
#	119870
#	135002
#	143432
#	158977
#	169020
#	183222
#	194497
#	203527
#	219455
#	229807
#	243057
#
# Disc length: 3442 seconds
#
# Revision: 2
# Processed by: cddbd v1.5.2PL0 Copyright (c) Steve Scherf et al.
# Submitted via: audiograbber 1.83.01
#
DISCID=1b0d7015
DTITLE=Boxcar Willie - King Of The Railroad
DYEAR=1994
DGENRE=Country
TTITLE0=King Of The Road
TTITLE1=Wabash Cannonball
TTITLE2=Don't Let The Stars Get In Your Eyes
TTITLE3=Boxcar Blues
TTITLE4=You Are My Sunshine
TTITLE5=Your Cheatin' Heart
TTITLE6=Wreck Of The Old '97
TTITLE7=Hank And The Hobo
TTITLE8=I Saw The Light
TTITLE9=Peace In The Valley
TTITLE10=Mule Train
TTITLE11=Hey Good Lookin'
TTITLE12=Kaw-Liga
TTITLE13=Move It On Over
TTITLE14=London Leaves
TTITLE15=Rolling In My Sweet Baby's Arms
TTITLE16=Divorce Me C.O.D.
TTITLE17=Red River Valley
TTITLE18=Heaven
TTITLE19=San Antonio Rose
TTITLE20=Train Medley: Fire Ball Mail/Train Of Love/Walking Cane/Wreck Of The O
TTITLE20=ld '97/Orange Blossom Special/Wabash Cannonball/Night Train To Memphis
EXTD=YEAR: 1994 ID3G:   2
EXTT0=
EXTT1=
EXTT2=
EXTT3=
EXTT4=
EXTT5=
EXTT6=
EXTT7=
EXTT8=
EXTT9=
EXTT10=
EXTT11=
EXTT12=
EXTT13=
EXTT14=
EXTT15=
EXTT16=
EXTT17=
EXTT18=
EXTT19=
EXTT20=
PLAYORDER=
